<svg fill="#ffffff" height="24" viewBox="0 0 24 24" width="24" xmlns="http://www.w3.org/2000/svg"><g fill="#000"><path clip-rule="evenodd" d="m2 10c0-1.65685 1.34315-3 3-3h14c1.6569 0 3 1.34315 3 3v8c0 1.6569-1.3431 3-3 3h-14c-1.65685 0-3-1.3431-3-3zm3-1c-.55228 0-1 .44772-1 1v8c0 .5523.44772 1 1 1h14c.5523 0 1-.4477 1-1v-8c0-.55228-.4477-1-1-1z" fill-rule="evenodd"/><path d="m13 13c0 .5523-.4477 1-1 1s-1-.4477-1-1 .4477-1 1-1 1 .4477 1 1z"/><g clip-rule="evenodd" fill-rule="evenodd"><path d="m21 17h-18v-2h18z"/><path d="m10.2942 6.01892c-.2835.66151-.2942 1.46383-.2942 1.98108h-1.99998c0-.01022 0-.02076-.00001-.03161-.00023-.5018-.00076-1.67186.45587-2.73731.24153-.56358.62564-1.13621 1.23427-1.56451.61465-.43255 1.38575-.66657 2.30985-.66657.9242 0 1.6952.23402 2.3099.66657.6086.4283.9927 1.00093 1.2343 1.56451.4566 1.06545.4561 2.23551.4558 2.73731v.03161h-2c0-.51725-.0106-1.31957-.2941-1.98108-.1335-.31142-.3119-.55129-.547-.71674-.2291-.1612-.583-.30218-1.1589-.30218-.5758 0-.9298.14098-1.1589.30218-.2351.16545-.4135.40532-.5469.71674z"/></g></g></svg>