<svg id="visual" viewBox="0 0 900 600" width="900" height="600" xmlns="http://www.w3.org/2000/svg" xmlns:xlink="http://www.w3.org/1999/xlink" version="1.1"><g stroke-width="1" stroke-linejoin="bevel"><path d="M463 295L418 232L434 300Z" fill="#246688" stroke="#246688"></path><path d="M463 295L477 166L418 232Z" fill="#246688" stroke="#246688"></path><path d="M302 335L400 369L434 300Z" fill="#19435d" stroke="#19435d"></path><path d="M434 300L497 375L463 295Z" fill="#277297" stroke="#277297"></path><path d="M400 369L497 375L434 300Z" fill="#19435d" stroke="#19435d"></path><path d="M463 295L564 169L477 166Z" fill="#081a28" stroke="#081a28"></path><path d="M371 123L307 231L418 232Z" fill="#246688" stroke="#246688"></path><path d="M418 232L307 231L434 300Z" fill="#112e42" stroke="#112e42"></path><path d="M637 264L564 169L463 295Z" fill="#0c2435" stroke="#0c2435"></path><path d="M507 83L371 123L477 166Z" fill="#246688" stroke="#246688"></path><path d="M477 166L371 123L418 232Z" fill="#00101c" stroke="#00101c"></path><path d="M307 231L302 335L434 300Z" fill="#277297" stroke="#277297"></path><path d="M564 169L507 83L477 166Z" fill="#112e42" stroke="#112e42"></path><path d="M497 375L637 264L463 295Z" fill="#15384f" stroke="#15384f"></path><path d="M564 169L597 94L507 83Z" fill="#297ea6" stroke="#297ea6"></path><path d="M302 335L315 414L400 369Z" fill="#0c2435" stroke="#0c2435"></path><path d="M400 369L391 467L497 375Z" fill="#112e42" stroke="#112e42"></path><path d="M315 414L391 467L400 369Z" fill="#246688" stroke="#246688"></path><path d="M497 375L605 415L637 264Z" fill="#297ea6" stroke="#297ea6"></path><path d="M482 508L605 415L497 375Z" fill="#246688" stroke="#246688"></path><path d="M307 231L222 301L302 335Z" fill="#277297" stroke="#277297"></path><path d="M302 335L204 409L315 414Z" fill="#297ea6" stroke="#297ea6"></path><path d="M202 160L222 301L307 231Z" fill="#15384f" stroke="#15384f"></path><path d="M269 0L277 109L371 123Z" fill="#297ea6" stroke="#297ea6"></path><path d="M371 123L277 109L307 231Z" fill="#19435d" stroke="#19435d"></path><path d="M671 235L597 94L564 169Z" fill="#081a28" stroke="#081a28"></path><path d="M723 260L671 235L637 264Z" fill="#205a7a" stroke="#205a7a"></path><path d="M637 264L671 235L564 169Z" fill="#112e42" stroke="#112e42"></path><path d="M391 467L482 508L497 375Z" fill="#112e42" stroke="#112e42"></path><path d="M315 414L334 491L391 467Z" fill="#081a28" stroke="#081a28"></path><path d="M385 600L460 600L482 508Z" fill="#277297" stroke="#277297"></path><path d="M203 521L334 491L315 414Z" fill="#1d4e6b" stroke="#1d4e6b"></path><path d="M277 109L202 160L307 231Z" fill="#19435d" stroke="#19435d"></path><path d="M535 0L417 0L507 83Z" fill="#246688" stroke="#246688"></path><path d="M507 83L417 0L371 123Z" fill="#246688" stroke="#246688"></path><path d="M277 109L196 103L202 160Z" fill="#297ea6" stroke="#297ea6"></path><path d="M597 94L535 0L507 83Z" fill="#0c2435" stroke="#0c2435"></path><path d="M123 389L204 409L222 301Z" fill="#246688" stroke="#246688"></path><path d="M222 301L204 409L302 335Z" fill="#00101c" stroke="#00101c"></path><path d="M725 375L723 260L637 264Z" fill="#00101c" stroke="#00101c"></path><path d="M730 95L632 0L597 94Z" fill="#1d4e6b" stroke="#1d4e6b"></path><path d="M597 94L632 0L535 0Z" fill="#0c2435" stroke="#0c2435"></path><path d="M482 508L634 471L605 415Z" fill="#15384f" stroke="#15384f"></path><path d="M605 415L725 375L637 264Z" fill="#15384f" stroke="#15384f"></path><path d="M269 0L196 103L277 109Z" fill="#081a28" stroke="#081a28"></path><path d="M92 211L113 300L222 301Z" fill="#15384f" stroke="#15384f"></path><path d="M634 471L725 375L605 415Z" fill="#19435d" stroke="#19435d"></path><path d="M417 0L269 0L371 123Z" fill="#246688" stroke="#246688"></path><path d="M730 95L597 94L671 235Z" fill="#081a28" stroke="#081a28"></path><path d="M92 211L222 301L202 160Z" fill="#297ea6" stroke="#297ea6"></path><path d="M793 187L730 95L671 235Z" fill="#15384f" stroke="#15384f"></path><path d="M793 187L671 235L723 260Z" fill="#112e42" stroke="#112e42"></path><path d="M634 471L689 489L725 375Z" fill="#277297" stroke="#277297"></path><path d="M596 600L689 489L634 471Z" fill="#081a28" stroke="#081a28"></path><path d="M385 600L482 508L391 467Z" fill="#277297" stroke="#277297"></path><path d="M482 508L596 600L634 471Z" fill="#205a7a" stroke="#205a7a"></path><path d="M385 600L391 467L334 491Z" fill="#19435d" stroke="#19435d"></path><path d="M271 600L385 600L334 491Z" fill="#112e42" stroke="#112e42"></path><path d="M113 300L123 389L222 301Z" fill="#15384f" stroke="#15384f"></path><path d="M204 409L203 521L315 414Z" fill="#081a28" stroke="#081a28"></path><path d="M168 0L133 95L196 103Z" fill="#19435d" stroke="#19435d"></path><path d="M196 103L133 95L202 160Z" fill="#1d4e6b" stroke="#1d4e6b"></path><path d="M123 389L203 521L204 409Z" fill="#15384f" stroke="#15384f"></path><path d="M133 95L92 211L202 160Z" fill="#205a7a" stroke="#205a7a"></path><path d="M113 300L0 295L123 389Z" fill="#19435d" stroke="#19435d"></path><path d="M830 306L723 260L725 375Z" fill="#0c2435" stroke="#0c2435"></path><path d="M830 306L793 187L723 260Z" fill="#15384f" stroke="#15384f"></path><path d="M782 0L705 0L730 95Z" fill="#1d4e6b" stroke="#1d4e6b"></path><path d="M730 95L705 0L632 0Z" fill="#15384f" stroke="#15384f"></path><path d="M460 600L596 600L482 508Z" fill="#19435d" stroke="#19435d"></path><path d="M203 521L271 600L334 491Z" fill="#205a7a" stroke="#205a7a"></path><path d="M269 0L168 0L196 103Z" fill="#205a7a" stroke="#205a7a"></path><path d="M776 484L817 361L725 375Z" fill="#00101c" stroke="#00101c"></path><path d="M776 484L725 375L689 489Z" fill="#277297" stroke="#277297"></path><path d="M817 361L830 306L725 375Z" fill="#0c2435" stroke="#0c2435"></path><path d="M793 187L801 85L730 95Z" fill="#1d4e6b" stroke="#1d4e6b"></path><path d="M900 133L801 85L793 187Z" fill="#00101c" stroke="#00101c"></path><path d="M718 600L776 484L689 489Z" fill="#19435d" stroke="#19435d"></path><path d="M168 0L137 0L133 95Z" fill="#0c2435" stroke="#0c2435"></path><path d="M0 184L0 295L92 211Z" fill="#205a7a" stroke="#205a7a"></path><path d="M102 600L218 600L203 521Z" fill="#19435d" stroke="#19435d"></path><path d="M203 521L218 600L271 600Z" fill="#277297" stroke="#277297"></path><path d="M801 85L782 0L730 95Z" fill="#112e42" stroke="#112e42"></path><path d="M596 600L718 600L689 489Z" fill="#081a28" stroke="#081a28"></path><path d="M92 211L0 295L113 300Z" fill="#0c2435" stroke="#0c2435"></path><path d="M123 389L88 530L203 521Z" fill="#1d4e6b" stroke="#1d4e6b"></path><path d="M0 184L92 211L0 103Z" fill="#19435d" stroke="#19435d"></path><path d="M0 438L88 530L123 389Z" fill="#081a28" stroke="#081a28"></path><path d="M0 103L92 211L133 95Z" fill="#00101c" stroke="#00101c"></path><path d="M900 301L900 232L830 306Z" fill="#112e42" stroke="#112e42"></path><path d="M830 306L900 232L793 187Z" fill="#00101c" stroke="#00101c"></path><path d="M801 85L900 0L782 0Z" fill="#205a7a" stroke="#205a7a"></path><path d="M900 301L830 306L900 381Z" fill="#277297" stroke="#277297"></path><path d="M900 381L830 306L817 361Z" fill="#00101c" stroke="#00101c"></path><path d="M900 381L817 361L900 467Z" fill="#1d4e6b" stroke="#1d4e6b"></path><path d="M0 0L0 103L133 95Z" fill="#277297" stroke="#277297"></path><path d="M900 467L817 361L776 484Z" fill="#205a7a" stroke="#205a7a"></path><path d="M900 232L900 133L793 187Z" fill="#081a28" stroke="#081a28"></path><path d="M0 295L0 438L123 389Z" fill="#1d4e6b" stroke="#1d4e6b"></path><path d="M88 530L102 600L203 521Z" fill="#19435d" stroke="#19435d"></path><path d="M0 600L102 600L88 530Z" fill="#00101c" stroke="#00101c"></path><path d="M827 600L900 467L776 484Z" fill="#00101c" stroke="#00101c"></path><path d="M0 438L0 513L88 530Z" fill="#081a28" stroke="#081a28"></path><path d="M718 600L827 600L776 484Z" fill="#297ea6" stroke="#297ea6"></path><path d="M137 0L0 0L133 95Z" fill="#246688" stroke="#246688"></path><path d="M900 133L900 0L801 85Z" fill="#246688" stroke="#246688"></path><path d="M0 513L0 600L88 530Z" fill="#0c2435" stroke="#0c2435"></path><path d="M827 600L900 600L900 467Z" fill="#00101c" stroke="#00101c"></path></g></svg>